<!-- http://vkopt.net/  -->
<svg version="1.1" xmlns="http://www.w3.org/2000/svg" width="64" height="64"
	 viewBox="0 0 256 256">
<linearGradient id="SVG_VK_1" x1="0%" y1="0%" x2="0%" y2="100%">
	<stop  offset="0" style="stop-color:#4F83B3"/>
	<stop  offset="1" style="stop-color:#436F9A"/>
</linearGradient>
<path fill-rule="evenodd" clip-rule="evenodd" fill="url(#SVG_VK_1)" d="M204.1,66l-25.3,30.4c-14.1-25-44.3-37.6-72.7-28.5
	c-32.5,10.4-50.5,45.2-40,77.8c6.2,19.4,21.2,33.6,39.1,39.7c7.4,14,15.4,31.9,21.1,46c-7.5,7.8-12.1,19.6-12.1,19.6l-30.9-6.7
	l3.5-26.3c-4.8-2-9.5-4.4-13.9-7.2L53.6,229l-23.4-21.3l16.2-21c-3.1-4.1-6-8.5-8.5-13.2l-25.8,6l-9.7-30.1l24.5-10.1
	c-0.7-5.3-0.9-10.5-0.8-15.7L0.8,116l6.7-30.9l26.3,3.5c2-4.8,4.4-9.5,7.2-13.9L22.8,55.3l21.3-23.4l21,16.2c4.1-3.1,8.5-6,13.2-8.5
	l-6-25.8l30.1-9.7l10.1,24.5c5.3-0.7,10.5-0.9,15.7-0.8l7.7-25.4l30.9,6.7l-3.5,26.3c4.8,2,9.5,4.4,13.9,7.2l19.3-18.2l23.4,21.3
	l-15.4,20L204.1,66z M79,106.3l49.8-18.1l44.6,87.8l31.7-95.6l50,18.1c-11,24.1-21,48.8-30.1,74c-9.1,25.2-17.2,50.9-24.4,77h-50.9
	c-9.5-22.9-20.2-46.3-32-70.2C105.8,155.3,92.9,131,79,106.3z"/>
</svg>
